<?xml version="1.0" encoding="utf-8"?>
<!-- Generator: Adobe Illustrator 19.0.0, SVG Export Plug-In . SVG Version: 6.00 Build 0)  -->
<svg version="1.1" id="Layer_1" xmlns="http://www.w3.org/2000/svg" xmlns:xlink="http://www.w3.org/1999/xlink" x="0px" y="0px"
	 viewBox="56 120 612 192" style="enable-background:new 56 120 612 192;" xml:space="preserve">
<style type="text/css">
	.st0{fill:#E71D35;}
</style>
<g id="XMLID_2_">
	<g id="XMLID_111_">
		<path id="XMLID_121_" class="st0" d="M168.5,179.1c-1,0-2.4,0.6-3.1,1.3l-22.1,22.1c-0.7,0.7-1.3,0.5-1.3-0.5l0.1-21
			c0-1-0.8-1.8-1.8-1.8h-21c-1,0-1.8-0.8-1.8-1.8l0.1-21c0-1-0.8-1.8-1.8-1.8h-21c-1,0-1.8,0.8-1.8,1.8l-0.1,21c0,1-0.8,1.8-1.8,1.8
			h-21c-1,0-1.8,0.8-1.8,1.8l-0.4,119.4c0,1,0.8,1.8,1.8,1.8h119.4c1,0,1.8-0.8,1.8-1.8l0.4-119.4c0-1-0.8-1.8-1.8-1.8H168.5z"/>
		<path id="XMLID_120_" class="st0" d="M143.5,131.2c-0.7-0.7-2.1-1.3-3.1-1.3h-21c-1,0-1.8,0.8-1.8,1.8l-0.1,21
			c0,1,0.8,1.8,1.8,1.8h21c1,0,1.8,0.8,1.8,1.8l-0.1,21c0,1,0.8,1.8,1.8,1.8h21c1,0,1.8-0.8,1.8-1.8l0.1-21c0-1-0.6-2.4-1.3-3.1
			L143.5,131.2z"/>
		<path id="XMLID_119_" class="st0" d="M244.3,302.1c-2.3,0-4.1-1.9-4.1-4.1V183.4c0-2.3,1.8-4.1,4.1-4.1H262c2.3,0,4.1,1.5,4.1,3.3
			c0,1.8,0.6,3.3,1.3,3.3c0.7,0,2.7-1.2,4.4-2.7l1.4-1.2c1.7-1.5,4.9-2.7,7.2-2.7h18.8c2.3,0,5.4,1.3,7,2.9l2.7,2.7
			c1.6,1.6,3.7,2.9,4.7,2.9c1,0,3.2-1.2,4.9-2.7l3.5-3.1c1.7-1.5,4.9-2.7,7.2-2.7H348c2.3,0,5.4,1.3,7,2.9l11.7,11.7
			c1.6,1.6,2.9,4.8,2.9,7V298c0,2.3-1.8,4.1-4.1,4.1h-25c-2.3,0-4.1-1.9-4.1-4.1v-85c0-2.3-0.6-4.7-1.3-5.4
			c-0.7-0.7-3.2-1.3-5.4-1.3h-0.6c-2.3,0-4.9,0.7-5.9,1.5c-1,0.9-1.8,3.4-1.8,5.7V298c0,2.3-1.8,4.1-4.1,4.1h-25
			c-2.3,0-4.1-1.9-4.1-4.1v-85c0-2.3-0.6-4.7-1.3-5.4c-0.7-0.7-3.2-1.3-5.4-1.3h-0.6c-2.3,0-4.9,0.7-5.9,1.5c-1,0.9-1.8,3.4-1.8,5.7
			V298c0,2.3-1.9,4.1-4.1,4.1H244.3z"/>
		<path id="XMLID_4_" class="st0" d="M403.4,302.1c-2.3,0-5.4-1.3-7-2.9l-10.3-10.3c-1.6-1.6-2.9-4.8-2.9-7v-42.1
			c0-2.3,1.3-5.4,2.9-7l10.8-10.8c1.6-1.6,4.8-2.9,7-2.9h22.8c2.3,0,4.1-1.8,4.1-4.1v-3.2c0-2.3-0.6-4.7-1.4-5.5
			c-0.8-0.8-3.3-1.4-5.5-1.4h-28.3c-2.3,0-4.1-1.8-4.1-4.1v-17.4c0-2.3,1.8-4.1,4.1-4.1h47.5c2.3,0,5.4,1.3,7,2.9l11,11
			c1.6,1.6,2.9,4.8,2.9,7V298c0,2.3-1.8,4.1-4.1,4.1h-17.6c-2.3,0-4.1-1.8-4.1-3.9c0-2.2-0.6-3.9-1.3-3.9c-0.7,0-2.7,1.2-4.4,2.7
			l-2.6,2.4c-1.7,1.5-4.9,2.7-7.2,2.7H403.4z M417,275.9c0.6,0.6,2.9,1.1,5.2,1.1h1.3c2.3,0,4.9-0.7,5.8-1.5
			c0.9-0.8,1.7-3.4,1.7-5.7v-24.5c0-2.3-1.9-4.1-4.1-4.1h-4.1c-2.3,0-4.7,0.5-5.4,1.2c-0.7,0.6-1.3,3-1.3,5.3v23.1
			C415.9,273,416.4,275.3,417,275.9"/>
		<path id="XMLID_115_" class="st0" d="M481.5,302.1c-2.3,0-4.1-1.9-4.1-4.1V183.4c0-2.3,1.8-4.1,4.1-4.1h17.6
			c2.3,0,4.1,1.7,4.1,3.7c0,2,0.6,3.7,1.3,3.7c0.7,0,2.7-1.2,4.4-2.7l2.1-1.9c1.7-1.5,4.9-2.7,7.2-2.7h19.5c2.3,0,5.4,1.3,7,2.9
			l11.7,11.7c1.6,1.6,2.9,4.8,2.9,7V298c0,2.3-1.8,4.1-4.1,4.1h-25c-2.3,0-4.1-1.9-4.1-4.1v-85c0-2.3-0.6-4.7-1.3-5.4
			c-0.7-0.7-3.2-1.3-5.4-1.3h-1.3c-2.3,0-4.9,0.7-5.9,1.5c-1,0.9-1.8,3.4-1.8,5.7V298c0,2.3-1.8,4.1-4.1,4.1H481.5z"/>
		<path id="XMLID_112_" class="st0" d="M595.2,302.1c-2.3,0-5.4-1.3-7-2.9L576,287c-1.6-1.6-2.9-4.7-2.9-7v-78.6
			c0-2.3,1.3-5.4,2.9-7l12.2-12.2c1.6-1.6,4.8-2.9,7-2.9h38.7c2.3,0,5.4,1.3,7,2.9l12.2,12.2c1.6,1.6,2.9,4.8,2.9,7V280
			c0,2.3-1.3,5.4-2.9,7L641,299.2c-1.6,1.6-4.8,2.9-7,2.9H595.2z M607.8,273.5c0.8,0.8,3.4,1.5,5.7,1.5h2.2c2.3,0,4.8-0.7,5.7-1.5
			c0.8-0.9,1.5-3.4,1.5-5.7v-54.4c0-2.3-0.7-4.8-1.5-5.7c-0.8-0.8-3.4-1.5-5.7-1.5h-2.2c-2.3,0-4.8,0.7-5.7,1.5
			c-0.8,0.9-1.5,3.4-1.5,5.7v54.4C606.3,270.1,607,272.7,607.8,273.5"/>
	</g>
</g>
</svg>
